<svg xmlns="http://www.w3.org/2000/svg" version="1.1" xmlns:xlink="http://www.w3.org/1999/xlink" x="0" y="0" viewBox="0 0 182 182" style="enable-background:new 0 0 512 512" xml:space="preserve" class=""><g><g fill="none" fill-rule="evenodd"><path fill="#ca4638" d="M172.192 252.2c15.979 33.45 10.116 74.725-17.589 102.43-27.705 27.705-68.98 33.568-102.43 17.59l120.02-120.02zm-17.536-24.777a90.483 90.483 0 0 0-.106-.106zM26.636 353.916a91.847 91.847 0 0 0 1.421 1.42l-1.42-1.42zm0 0" opacity="1" data-original="#ca4638" class=""></path><path fill="#479951" d="M9.787 329.778C-6.192 296.33-.329 255.054 27.377 227.35c27.704-27.705 68.98-33.568 102.429-17.59L9.787 329.78zm17.536 24.778a95.007 95.007 0 0 0 .107.106zm128.02-126.493a91.844 91.844 0 0 0-1.42-1.42l1.42 1.42zm0 0" opacity="1" data-original="#479951"></path><g transform="translate(1 1)"><circle cx="90" cy="90" r="90" fill="#ffffff" opacity="1" data-original="#ffffff" class=""></circle><path fill="#ffffff" d="M138.23 14a90.435 90.435 0 0 1 17.008 14H24.762A90.435 90.435 0 0 1 41.77 14zm27.915 28a89.714 89.714 0 0 1 7.211 14H6.644c2-4.897 4.418-9.579 7.21-14zm11.625 28a89.93 89.93 0 0 1 2.033 14H.197A89.93 89.93 0 0 1 2.23 70zm1.88 28a89.752 89.752 0 0 1-2.358 14H2.708A89.752 89.752 0 0 1 .351 98zm-7.139 28a89.813 89.813 0 0 1-7.666 14H15.155a89.813 89.813 0 0 1-7.666-14zm-19.234 28a90.344 90.344 0 0 1-18.347 14H45.07a90.344 90.344 0 0 1-18.347-14zm0 0" opacity="1" data-original="#ffffff" class=""></path><path fill="#ca4638" d="M90 42h76.145a90.38 90.38 0 0 0-10.907-14H90zm0-42c17.744 0 34.289 5.135 48.23 14H90zm0 70h87.77a89.307 89.307 0 0 0-4.414-14H90zM0 90c0 2.696.119 5.364.35 8h179.3a91.162 91.162 0 0 0 .153-14H90v6zm177.292 22a89.319 89.319 0 0 1-4.78 14H7.488a89.319 89.319 0 0 1-4.78-14zm-12.447 28a90.446 90.446 0 0 1-11.568 14H26.723a90.446 90.446 0 0 1-11.568-14zm-29.915 28c-13.222 7.633-28.566 12-44.93 12s-31.708-4.367-44.93-12h89.86zm0 0" opacity="1" data-original="#ca4638" class=""></path><path fill="#346da6" d="M90 0C40.294 0 0 40.294 0 90h90zm0 0" opacity="1" data-original="#346da6"></path><g fill="#fff"><path d="M34.414 34.463 31.686 36l.521-3.256L30 30.438l3.05-.475L34.414 27l1.364 2.963 3.05.475-2.206 2.306.52 3.256zM34.414 50.463 31.686 52l.521-3.256L30 46.438l3.05-.475L34.414 43l1.364 2.963 3.05.475-2.206 2.306.52 3.256zM23.414 44.463 20.686 46l.521-3.256L19 40.438l3.05-.475L23.414 37l1.364 2.963 3.05.475-2.206 2.306.52 3.256zM22.414 59.463 19.686 61l.521-3.256L18 55.438l3.05-.475L22.414 52l1.364 2.963 3.05.475-2.206 2.306.52 3.256zM32.414 69.463 29.686 71l.521-3.256L28 65.438l3.05-.475L32.414 62l1.364 2.963 3.05.475-2.206 2.306.52 3.256zM22.414 75.463 19.686 77l.521-3.256L18 71.438l3.05-.475L22.414 68l1.364 2.963 3.05.475-2.206 2.306.52 3.256zM11.414 67.463 8.686 69l.521-3.256L7 63.438l3.05-.475L11.414 60l1.364 2.963 3.05.475-2.206 2.306.52 3.256zM11.414 83.463 8.686 85l.521-3.256L7 79.438l3.05-.475L11.414 76l1.364 2.963 3.05.475-2.206 2.306.52 3.256zM34.414 83.463 31.686 85l.521-3.256L30 79.438l3.05-.475L34.414 76l1.364 2.963 3.05.475-2.206 2.306.52 3.256zM80.414 16.463 77.686 18l.521-3.256L76 12.438l3.05-.475L80.414 9l1.364 2.963 3.05.475-2.206 2.306.52 3.256zM80.414 32.463 77.686 34l.521-3.256L76 28.438l3.05-.475L80.414 25l1.364 2.963 3.05.475-2.206 2.306.52 3.256zM80.414 48.463 77.686 50l.521-3.256L76 44.438l3.05-.475L80.414 41l1.364 2.963 3.05.475-2.206 2.306.52 3.256zM80.414 64.463 77.686 66l.521-3.256L76 60.438l3.05-.475L80.414 57l1.364 2.963 3.05.475-2.206 2.306.52 3.256zM68.414 25.463 65.686 27l.521-3.256L64 21.438l3.05-.475L68.414 18l1.364 2.963 3.05.475-2.206 2.306.52 3.256zM68.414 41.463 65.686 43l.521-3.256L64 37.438l3.05-.475L68.414 34l1.364 2.963 3.05.475-2.206 2.306.52 3.256zM68.414 57.463 65.686 59l.521-3.256L64 53.438l3.05-.475L68.414 50l1.364 2.963 3.05.475-2.206 2.306.52 3.256zM68.414 73.463 65.686 75l.521-3.256L64 69.438l3.05-.475L68.414 66l1.364 2.963 3.05.475-2.206 2.306.52 3.256zM80.414 81.463 77.686 83l.521-3.256L76 77.438l3.05-.475L80.414 74l1.364 2.963 3.05.475-2.206 2.306.52 3.256zM58.414 18.463 55.686 20l.521-3.256L54 14.438l3.05-.475L58.414 11l1.364 2.963 3.05.475-2.206 2.306.52 3.256zM58.414 34.463 55.686 36l.521-3.256L54 30.438l3.05-.475L58.414 27l1.364 2.963 3.05.475-2.206 2.306.52 3.256zM58.414 50.463 55.686 52l.521-3.256L54 46.438l3.05-.475L58.414 43l1.364 2.963 3.05.475-2.206 2.306.52 3.256zM58.414 66.463 55.686 68l.521-3.256L54 62.438l3.05-.475L58.414 59l1.364 2.963 3.05.475-2.206 2.306.52 3.256zM46.414 27.463 43.686 29l.521-3.256L42 23.438l3.05-.475L46.414 20l1.364 2.963 3.05.475-2.206 2.306.52 3.256zM46.414 43.463 43.686 45l.521-3.256L42 39.438l3.05-.475L46.414 36l1.364 2.963 3.05.475-2.206 2.306.52 3.256zM46.414 59.463 43.686 61l.521-3.256L42 55.438l3.05-.475L46.414 52l1.364 2.963 3.05.475-2.206 2.306.52 3.256zM46.414 75.463 43.686 77l.521-3.256L42 71.438l3.05-.475L46.414 68l1.364 2.963 3.05.475-2.206 2.306.52 3.256zM58.414 83.463 55.686 85l.521-3.256L54 79.438l3.05-.475L58.414 76l1.364 2.963 3.05.475-2.206 2.306.52 3.256z" fill="#ffffff" opacity="1" data-original="#ffffff" class=""></path></g></g></g></g></svg>