<svg xmlns="http://www.w3.org/2000/svg" version="1.1" xmlns:xlink="http://www.w3.org/1999/xlink" x="0" y="0" viewBox="0 0 30 30" style="enable-background:new 0 0 512 512" xml:space="preserve" class=""><g><circle cx="15" cy="15" r="15" class="" style="" fill="#f0f0f0" data-original="#f0f0f0"></circle><path d="m6.334 21.268.75-.5 1.33 1.998-.748.499zM5.734 17.83l.75-.5 3.106 4.66-.75.5zM4.584 18.554l.749-.5 1.33 1.997-.748.5zM3.408 19.33l.749-.5 3.106 4.66-.749.5zM21.561 7.33l.749-.499 3.106 4.66-.749.499zM20.41 8.054l.749-.499 1.33 1.997-.748.5zM22.103 10.684l.75-.499 1.33 1.997-.748.5zM22.736 6.555l.75-.5 1.33 1.998-.748.499zM24.515 9.13l.75-.5 1.33 1.998-.748.499zM21.55 22.716l1.332-1.997.749.5-1.331 1.996zM23.347 20.063l1.331-1.997.749.499-1.331 1.997zM22.756 23.467l1.33-1.997.75.499-1.332 1.997zM24.496 20.899l1.33-1.997.75.499-1.332 1.997zM20.347 21.965l1.331-1.997.75.5-1.332 1.996zM22.142 19.312l1.331-1.997.75.5-1.332 1.996zM4.585 11.438l3.106-4.66.75.5-3.107 4.66zM5.79 12.191l3.107-4.66.749.5-3.107 4.66zM3.436 10.605l3.106-4.66.75.5-3.107 4.659z" fill="#000000" opacity="1" data-original="#000000"></path><circle cx="15" cy="15" r="5.6" class="st1" style="" fill="#ed1c24" data-original="#ed1c24"></circle><path d="M18.9 15c-1.1-1.1-2.8-1.1-3.9 0s-2.8 1.1-3.9 0c-1-1-1.1-2.6-.2-3.7-2.1 2.3-1.9 5.8.4 7.9 2.2 2 5.6 1.9 7.7-.2 1-1.2 1-2.9-.1-4z" class="st2" style="" fill="#0071bc" data-original="#0071bc"></path></g></svg>