<svg xmlns="http://www.w3.org/2000/svg" viewBox="0 0 440.06 138.54" id="d_index_1" class="_playSVG"><title>logoAsset 3</title><g id="Layer_2" data-name="Layer 2"><g id="Text" class="select"><path d="M159.81,123.7h2.1l-4.41,10.38h-1.88l-1.88-4.68-1.87,4.68H150l-4.42-10.38h2.09L151,132l1.47-3.83-1.8-4.41h1.87l1.17,3.24,1.17-3.24h1.86L155,128.13l1.47,3.83Z" fill="#1e1e1e" id="d_index_4"></path><path d="M163.87,121.9v-2.42h2.19v2.42Zm0,12.18V123.62h2.19v10.46Z" fill="#1e1e1e" id="d_index_5"></path><path d="M178.58,134.08h-2.2v-5.79a3.72,3.72,0,0,0-.47-2.12,1.59,1.59,0,0,0-1.39-.67,2.84,2.84,0,0,0-1.27.32,4,4,0,0,0-1.13.85,3.33,3.33,0,0,0-.72,1.25v6.16h-2.2V123.7h2v2.1a4.29,4.29,0,0,1,1.05-1.2,5.18,5.18,0,0,1,1.47-.78,5.29,5.29,0,0,1,1.74-.28,3.1,3.1,0,0,1,1.55.34,2.43,2.43,0,0,1,1,.92,3.62,3.62,0,0,1,.48,1.35,9.21,9.21,0,0,1,.13,1.61Z" fill="#1e1e1e" id="d_index_6"></path><path d="M192.9,133.58a4.88,4.88,0,0,1-.7.3,6.35,6.35,0,0,1-.95.28,4.86,4.86,0,0,1-1.09.12,3.29,3.29,0,0,1-1.26-.24,2.08,2.08,0,0,1-.93-.76,2.49,2.49,0,0,1-.35-1.37V125.4h-1.38v-1.7h1.38v-3.44h2.2v3.44h2.28v1.7h-2.28v5.81a1.11,1.11,0,0,0,.35.79,1.14,1.14,0,0,0,.77.26,2.37,2.37,0,0,0,.88-.16,4.83,4.83,0,0,0,.62-.26Z" fill="#1e1e1e" id="d_index_7"></path><path d="M199.48,134.28a5.63,5.63,0,0,1-2.22-.42,5.3,5.3,0,0,1-1.69-1.18,5.64,5.64,0,0,1-1.09-1.72,5.57,5.57,0,0,1-.38-2.05,5.71,5.71,0,0,1,.38-2.06,5.26,5.26,0,0,1,1.09-1.71,5.17,5.17,0,0,1,1.7-1.17,5.92,5.92,0,0,1,4.43,0,5,5,0,0,1,1.69,1.17,5,5,0,0,1,1.09,1.71,5.51,5.51,0,0,1,.39,2.06,5.38,5.38,0,0,1-.39,2.05,5.29,5.29,0,0,1-1.09,1.72,5.2,5.2,0,0,1-1.69,1.18A5.67,5.67,0,0,1,199.48,134.28Zm-3.11-5.35a3.74,3.74,0,0,0,.41,1.78,3.3,3.3,0,0,0,1.13,1.24,2.83,2.83,0,0,0,1.57.45,2.78,2.78,0,0,0,1.57-.46,3.21,3.21,0,0,0,1.13-1.26,3.76,3.76,0,0,0,.42-1.77,3.67,3.67,0,0,0-.42-1.77,3.11,3.11,0,0,0-1.13-1.25,2.79,2.79,0,0,0-1.57-.47,2.7,2.7,0,0,0-1.57.48,3.41,3.41,0,0,0-1.13,1.25A3.68,3.68,0,0,0,196.37,128.93Z" fill="#1e1e1e" id="d_index_8"></path><path d="M211.46,134.28a4.34,4.34,0,0,1-1.94-.43,4.52,4.52,0,0,1-1.51-1.17,5.6,5.6,0,0,1-1-1.7,5.92,5.92,0,0,1-.35-2,6.1,6.1,0,0,1,.36-2.1,5.62,5.62,0,0,1,1-1.73,4.81,4.81,0,0,1,1.53-1.17,4.5,4.5,0,0,1,2-.42,4.12,4.12,0,0,1,2.21.59,4.94,4.94,0,0,1,1.57,1.55v-2h1.94v10.11a4.34,4.34,0,0,1-.73,2.56,4.63,4.63,0,0,1-2,1.62,7,7,0,0,1-2.84.55,6.15,6.15,0,0,1-2.88-.6,5.87,5.87,0,0,1-1.94-1.64l1.24-1.16a3.86,3.86,0,0,0,1.55,1.28,4.84,4.84,0,0,0,2,.44,4.18,4.18,0,0,0,1.67-.32,2.66,2.66,0,0,0,1.23-1,2.85,2.85,0,0,0,.46-1.68v-1.6a3.83,3.83,0,0,1-1.54,1.47A4.19,4.19,0,0,1,211.46,134.28Zm.72-1.78a2.55,2.55,0,0,0,1-.17,3,3,0,0,0,.85-.46,3,3,0,0,0,.67-.66,2.27,2.27,0,0,0,.4-.79v-2.74a3.6,3.6,0,0,0-1.82-2,2.94,2.94,0,0,0-1.22-.28,2.73,2.73,0,0,0-1.29.31,3.19,3.19,0,0,0-1,.82,4,4,0,0,0-.84,2.47,3.67,3.67,0,0,0,.25,1.34,3.71,3.71,0,0,0,.69,1.11,3.09,3.09,0,0,0,2.32,1Z" fill="#1e1e1e" id="d_index_9"></path><path d="M225.14,134.28a5.62,5.62,0,0,1-2.21-.42,5.28,5.28,0,0,1-1.71-1.18,5.21,5.21,0,0,1-1.11-1.7,5.63,5.63,0,0,1,.29-4.74,5.41,5.41,0,0,1,1.9-2,5.46,5.46,0,0,1,2.86-.74,5.17,5.17,0,0,1,2.83.75,5.09,5.09,0,0,1,1.85,1.95,5.31,5.31,0,0,1,.66,2.59,3.24,3.24,0,0,1,0,.45,2.66,2.66,0,0,1,0,.34h-8.38a3.19,3.19,0,0,0,.51,1.59,3.36,3.36,0,0,0,1.15,1.07,3.15,3.15,0,0,0,1.5.38,3.29,3.29,0,0,0,1.67-.44,2.22,2.22,0,0,0,1.07-1.16l1.88.54a3.84,3.84,0,0,1-1,1.37,5,5,0,0,1-1.63,1A5.82,5.82,0,0,1,225.14,134.28ZM222,128.16h6.32a3.14,3.14,0,0,0-.51-1.56,3.3,3.3,0,0,0-1.14-1.06,3.23,3.23,0,0,0-3,0,3.27,3.27,0,0,0-1.13,1.06A3.24,3.24,0,0,0,222,128.16Z" fill="#1e1e1e" id="d_index_10"></path><path d="M238.52,133.58a4.88,4.88,0,0,1-.7.3,6.35,6.35,0,0,1-.95.28,4.86,4.86,0,0,1-1.09.12,3.29,3.29,0,0,1-1.26-.24,2.08,2.08,0,0,1-.93-.76,2.49,2.49,0,0,1-.35-1.37V125.4h-1.38v-1.7h1.38v-3.44h2.2v3.44h2.28v1.7h-2.28v5.81a1.11,1.11,0,0,0,.35.79,1.14,1.14,0,0,0,.77.26,2.37,2.37,0,0,0,.88-.16,4.83,4.83,0,0,0,.62-.26Z" fill="#1e1e1e" id="d_index_11"></path><path d="M249.92,134.08h-2.2v-5.79a3.48,3.48,0,0,0-.52-2.1,1.71,1.71,0,0,0-1.46-.69,2.7,2.7,0,0,0-1.2.32,3.74,3.74,0,0,0-1.1.85,3.42,3.42,0,0,0-.7,1.25v6.16h-2.2v-14.6h2.2v6.32a4.4,4.4,0,0,1,1.64-1.65,4.34,4.34,0,0,1,2.24-.61,3.36,3.36,0,0,1,1.62.34,2.5,2.5,0,0,1,1,.92,3.84,3.84,0,0,1,.52,1.35,8.3,8.3,0,0,1,.15,1.61Z" fill="#1e1e1e" id="d_index_12"></path><path d="M257.72,134.28a5.62,5.62,0,0,1-2.21-.42,5.28,5.28,0,0,1-1.71-1.18,5.21,5.21,0,0,1-1.11-1.7,5.63,5.63,0,0,1,.29-4.74,5.41,5.41,0,0,1,1.9-2,5.46,5.46,0,0,1,2.86-.74,5.17,5.17,0,0,1,2.83.75,5.09,5.09,0,0,1,1.85,1.95,5.31,5.31,0,0,1,.66,2.59,3.24,3.24,0,0,1,0,.45,2.66,2.66,0,0,1,0,.34h-8.38a3.19,3.19,0,0,0,.51,1.59,3.36,3.36,0,0,0,1.15,1.07,3.15,3.15,0,0,0,1.5.38,3.29,3.29,0,0,0,1.67-.44,2.22,2.22,0,0,0,1.07-1.16l1.88.54a3.84,3.84,0,0,1-1,1.37,5,5,0,0,1-1.63,1A5.82,5.82,0,0,1,257.72,134.28Zm-3.14-6.12h6.32a3.14,3.14,0,0,0-.51-1.56,3.3,3.3,0,0,0-1.14-1.06,3.23,3.23,0,0,0-3,0,3.27,3.27,0,0,0-1.13,1.06A3.24,3.24,0,0,0,254.58,128.16Z" fill="#1e1e1e" id="d_index_13"></path><path d="M271.26,125.52a4.81,4.81,0,0,0-2.27.58,3.18,3.18,0,0,0-1.41,1.58v6.4h-2.2V123.7h2V126a4.78,4.78,0,0,1,1.42-1.73,3.49,3.49,0,0,1,1.86-.71H271l.23,0Z" fill="#1e1e1e" id="d_index_14"></path><path d="M145.57,98.39V63.14h9.68V76.55L166,63.14h10.92L164.08,78.93l13.7,19.46H166.66l-8.73-13-2.68,2.78V98.39Z" fill="#fcb23f" id="d_index_15" class=""></path><path d="M181.06,98.39V63.14h9.68V90h16v8.44Z" fill="#fcb23f" id="d_index_16"></path><path d="M248.38,71.58H238.25V98.39h-9.68V71.58H218.39V63.14h30Z" fill="#fcb23f" id="d_index_17"></path><path d="M247.78,90.64a7.55,7.55,0,0,1,1.44-4.56,9.6,9.6,0,0,1,4-3.1,14.54,14.54,0,0,1,5.83-1.12,15.85,15.85,0,0,1,2.91.25,8.73,8.73,0,0,1,2.36.74v-.79a3.16,3.16,0,0,0-1.07-2.62,5.53,5.53,0,0,0-3.45-.86,11.55,11.55,0,0,0-4.1.72,20.41,20.41,0,0,0-4,2.11L249,75.56a20.21,20.21,0,0,1,5.53-2.51,22.72,22.72,0,0,1,6.23-.82q6.21,0,9.61,2.74c2.27,1.82,3.4,4.53,3.4,8.11v5a3,3,0,0,0,.4,1.81,1.91,1.91,0,0,0,1.39.61v7.94a21.28,21.28,0,0,1-2.16.37,14,14,0,0,1-1.81.13,6.71,6.71,0,0,1-3.85-.92A4.28,4.28,0,0,1,266,95.26l-.19-.94a11.89,11.89,0,0,1-4,3.4,10.5,10.5,0,0,1-4.86,1.17,10.13,10.13,0,0,1-4.67-1.07,8.22,8.22,0,0,1-3.27-3A7.65,7.65,0,0,1,247.78,90.64Zm15.3.56a4.17,4.17,0,0,0,.89-.82,1.49,1.49,0,0,0,.35-.92V87.63a12.3,12.3,0,0,0-1.82-.47,10.52,10.52,0,0,0-1.81-.19,5,5,0,0,0-2.85.8,2.38,2.38,0,0,0-1.17,2,2,2,0,0,0,.4,1.2,2.58,2.58,0,0,0,1.09.84,3.79,3.79,0,0,0,1.59.31,6.58,6.58,0,0,0,1.76-.26A5.67,5.67,0,0,0,263.08,91.2Z" fill="#fcb23f" id="d_index_18"></path><path d="M290.23,98.89a10.65,10.65,0,0,1-4.64-1,10.33,10.33,0,0,1-3.6-2.78,13.24,13.24,0,0,1-2.31-4.18,16,16,0,0,1-.82-5.17,15.61,15.61,0,0,1,.9-5.4,13.39,13.39,0,0,1,2.5-4.3,11.12,11.12,0,0,1,3.85-2.84,12,12,0,0,1,4.92-1A10.91,10.91,0,0,1,296,73.3a8,8,0,0,1,3.4,3.2V72.63h8.19v23.5a12.42,12.42,0,0,1-2,7,13,13,0,0,1-5.56,4.65,19.86,19.86,0,0,1-8.34,1.64,18.69,18.69,0,0,1-7.22-1.29,16.49,16.49,0,0,1-5.49-3.72l5-5.16a12.86,12.86,0,0,0,3.45,2.25,10.08,10.08,0,0,0,4.29.92,8.92,8.92,0,0,0,3.2-.56,5.09,5.09,0,0,0,2.36-1.82,6,6,0,0,0,.89-3.57V94.82a6.88,6.88,0,0,1-3.25,3.05A10.71,10.71,0,0,1,290.23,98.89Zm3.38-7.45a5.05,5.05,0,0,0,1.31-.17,4.69,4.69,0,0,0,1.17-.5,5.77,5.77,0,0,0,1.07-.85,8.56,8.56,0,0,0,1-1.17V84.06A6.14,6.14,0,0,0,296.88,82a5.86,5.86,0,0,0-1.73-1.34,4.25,4.25,0,0,0-1.94-.48,4,4,0,0,0-1.86.45,4.59,4.59,0,0,0-1.52,1.27,6.09,6.09,0,0,0-1,1.87,7.17,7.17,0,0,0-.35,2.25,6.18,6.18,0,0,0,.38,2.19,4.79,4.79,0,0,0,1.06,1.72A4.89,4.89,0,0,0,291.57,91,5.12,5.12,0,0,0,293.61,91.44Z" fill="#fcb23f" id="d_index_19"></path><path d="M331.88,96.9c-.86.37-1.78.71-2.75,1a20.53,20.53,0,0,1-3,.72,17.72,17.72,0,0,1-2.95.25,10.65,10.65,0,0,1-3.93-.71,5.91,5.91,0,0,1-2.85-2.33,8,8,0,0,1-1.07-4.4V79.73h-3.23v-7.1h3.23v-8.2h9.43v8.2h5.12v7.1h-5.12v8.32a2.33,2.33,0,0,0,.55,1.75,2.13,2.13,0,0,0,1.49.5,5.9,5.9,0,0,0,1.59-.25,18.7,18.7,0,0,0,1.79-.59Z" fill="#fcb23f" id="d_index_20"></path><path d="M348.37,98.89a16.65,16.65,0,0,1-6.11-1A12.91,12.91,0,0,1,337.77,95,12.3,12.3,0,0,1,335,90.82a13.08,13.08,0,0,1-.94-4.94,14.21,14.21,0,0,1,1.64-6.8,12.48,12.48,0,0,1,4.81-5,17.39,17.39,0,0,1,15.69,0A12.57,12.57,0,0,1,361,79a13.67,13.67,0,0,1,1.63,6.6c0,.49,0,1-.07,1.49s-.11,1-.17,1.34H344.1a3.71,3.71,0,0,0,.77,2.15,3.78,3.78,0,0,0,1.68,1.2,6.1,6.1,0,0,0,2.11.38,6.25,6.25,0,0,0,2.91-.7,3.5,3.5,0,0,0,1.81-1.93l8,2.28a11.58,11.58,0,0,1-2.9,3.67,14,14,0,0,1-4.4,2.51A16.66,16.66,0,0,1,348.37,98.89ZM343.9,82.75h8.64a4.63,4.63,0,0,0-.72-2,3.9,3.9,0,0,0-1.49-1.3,4.65,4.65,0,0,0-2.11-.47,4.59,4.59,0,0,0-2.11.47,3.83,3.83,0,0,0-1.49,1.3A4.63,4.63,0,0,0,343.9,82.75Z" fill="#fcb23f" id="d_index_21"></path><path d="M365.54,90.64A7.55,7.55,0,0,1,367,86.08a9.54,9.54,0,0,1,4-3.1,14.5,14.5,0,0,1,5.83-1.12,15.85,15.85,0,0,1,2.91.25,8.55,8.55,0,0,1,2.35.74v-.79A3.15,3.15,0,0,0,381,79.44a5.53,5.53,0,0,0-3.45-.86,11.55,11.55,0,0,0-4.1.72,20.47,20.47,0,0,0-4,2.11l-2.73-5.85a20.27,20.27,0,0,1,5.54-2.51,22.72,22.72,0,0,1,6.23-.82q6.21,0,9.61,2.74c2.26,1.82,3.4,4.53,3.4,8.11v5a3.09,3.09,0,0,0,.39,1.81,2,2,0,0,0,1.39.61v7.94a21.28,21.28,0,0,1-2.16.37,13.73,13.73,0,0,1-1.81.13,6.68,6.68,0,0,1-3.84-.92,4.28,4.28,0,0,1-1.72-2.71l-.2-.94a11.86,11.86,0,0,1-4,3.4,10.5,10.5,0,0,1-4.86,1.17A10.13,10.13,0,0,1,370,97.82a8.32,8.32,0,0,1-3.28-3A7.72,7.72,0,0,1,365.54,90.64Zm15.29.56a4.23,4.23,0,0,0,.9-.82,1.48,1.48,0,0,0,.34-.92V87.63a12.16,12.16,0,0,0-1.81-.47,10.62,10.62,0,0,0-1.81-.19,4.91,4.91,0,0,0-2.85.8,2.38,2.38,0,0,0-1.17,2,2,2,0,0,0,.4,1.2,2.52,2.52,0,0,0,1.09.84,3.79,3.79,0,0,0,1.59.31,6.58,6.58,0,0,0,1.76-.26A5.6,5.6,0,0,0,380.83,91.2Z" fill="#fcb23f" id="d_index_22"></path><path d="M440.06,98.39h-9.43V84.05a4,4,0,0,0-.77-2.73,2.4,2.4,0,0,0-1.86-.85,3.93,3.93,0,0,0-2.38,1,5.77,5.77,0,0,0-1.89,2.61V98.39H414.3V84.05a4,4,0,0,0-.77-2.73,2.43,2.43,0,0,0-1.87-.85,4,4,0,0,0-2.38,1A5.75,5.75,0,0,0,407.39,84v14.4H398V72.63h8.49v3.89a8.81,8.81,0,0,1,3.82-3.19,14,14,0,0,1,5.76-1.1,7.46,7.46,0,0,1,4.87,1.37,6.61,6.61,0,0,1,2.18,3.07,9.3,9.3,0,0,1,3.83-3.27,12.43,12.43,0,0,1,5.46-1.17,7.93,7.93,0,0,1,4.12.93,6.15,6.15,0,0,1,2.31,2.39,9.69,9.69,0,0,1,1,3,18.43,18.43,0,0,1,.25,2.9Z" fill="#fcb23f" id="d_index_23"></path></g><g id="Object" class=""><path d="M22,36.62l20.46,11A24.95,24.95,0,0,0,76.21,37.49L87.21,17,74.78,10.34l-11,20.47a10.82,10.82,0,0,1-14.6,4.39l-20.46-11Z" fill="#269cd9" fill-rule="evenodd" id="d_index_25"></path><path d="M111.94,99.24l-20.47-11A24.95,24.95,0,0,0,57.76,98.38l-11,20.46,12.43,6.68,11-20.46a10.83,10.83,0,0,1,14.6-4.39l20.46,11Z" fill="#4ab649" fill-rule="evenodd" id="d_index_26"></path><path d="M36.15,111.64l11-20.47A24.95,24.95,0,0,0,37,57.46l-20.46-11L9.87,58.89l20.46,11a10.83,10.83,0,0,1,4.39,14.6L23.72,105Z" fill="#f14336" fill-rule="evenodd" id="d_index_27"></path><path d="M15.21,94.35A11.8,11.8,0,1,0,.5,86.45a11.8,11.8,0,0,0,14.71,7.9" fill="#f14336" fill-rule="evenodd" id="d_index_28"></path><path d="M38.8,15.21A11.81,11.81,0,1,0,46.71.5,11.81,11.81,0,0,0,38.8,15.21" fill="#269cd9" fill-rule="evenodd" id="d_index_29"></path><path d="M95.31,22.78l-11,20.46A24.93,24.93,0,0,0,94.44,77l20.47,11,6.68-12.43-20.47-11a10.85,10.85,0,0,1-4.39-14.6l11-20.46Z" fill="#fbbb00" fill-rule="evenodd" id="d_index_30"></path><path d="M118,38.8a11.81,11.81,0,1,0,14.7,7.91A11.81,11.81,0,0,0,118,38.8" fill="#fbbb00" fill-rule="evenodd" id="d_index_31"></path><path d="M94.35,118a11.8,11.8,0,1,0-7.9,14.7,11.8,11.8,0,0,0,7.9-14.7" fill="#4ab649" fill-rule="evenodd" id="d_index_32"></path></g></g><style id="style_tag">@-webkit-keyframes fadeInLeft {   from {     opacity: 0;     -webkit-transform: translate3d(-100%, 0, 0);     transform: translate3d(-100%, 0, 0);   }    to {     opacity: 1;     -webkit-transform: translate3d(0, 0, 0);     transform: translate3d(0, 0, 0);   } } @keyframes fadeInLeft {   from {     opacity: 0;     -webkit-transform: translate3d(-100%, 0, 0);     transform: translate3d(-100%, 0, 0);   }    to {     opacity: 1;     -webkit-transform: translate3d(0, 0, 0);     transform: translate3d(0, 0, 0);   } } svg._playSVG #Object{transform-origin: center;   -webkit-animation-name: fadeInLeft;   animation-name: fadeInLeft;  animation-duration: 1s;animation-delay: 0s;animation-iteration-count: 1;animation-fill-mode: both;}@-webkit-keyframes fadeInRight {   from {     opacity: 0;     -webkit-transform: translate3d(100%, 0, 0);     transform: translate3d(100%, 0, 0);   }    to {     opacity: 1;     -webkit-transform: translate3d(0, 0, 0);     transform: translate3d(0, 0, 0);   } } @keyframes fadeInRight {   from {     opacity: 0;     -webkit-transform: translate3d(100%, 0, 0);     transform: translate3d(100%, 0, 0);   }    to {     opacity: 1;     -webkit-transform: translate3d(0, 0, 0);     transform: translate3d(0, 0, 0);   } } svg._playSVG #Text{transform-origin: center;   -webkit-animation-name: fadeInRight;   animation-name: fadeInRight;  animation-duration: 1s;animation-delay: 0.5s;animation-iteration-count: 1;animation-fill-mode: both;}</style></svg>